#!OML:ASF E:\Style4\Style4.ASF
:FULLY-SPECIFIED
:DEGREES
3270
root 0.315628 17.2905 -2.50407 1.03915 -0.718216 2.71724
lowerback 12.6473 4.34445 -1.22927
upperback 7.6333 5.6031 0.627211
thorax 0.761047 2.75397 0.677256
lowerneck 1.23241 -12.3179 -8.18774
upperneck 12.7141 -16.5696 2.77141
head 4.55374 -8.36762 1.4078
rclavicle 5.56597e-015 1.03368e-014
rhumerus 23.6023 3.83579 -68.4108
rradius 32.4668
rwrist 23.182
rhand -26.2831 20.5159
rfingers 7.12502
rthumb 0.272349 -9.46367
lclavicle 5.56597e-015 1.03368e-014
lhumerus -14.4068 -39.392 80.2822
lradius 101.542
lwrist -14.6558
lhand -27.3059 25.7593
lfingers 7.12502
lthumb -0.715513 55.7378
rfemur -25.5582 0.0858905 14.2561
rtibia 44.5183
rfoot -18.9345 -10.7418
rtoes -11.8301
lfemur -24.3653 0.974361 -22.6399
ltibia 42.8434
lfoot -19.4742 6.00267
ltoes -11.8612
3271
root 0.322697 17.2926 -2.50131 1.04591 -0.812399 2.80083
lowerback 12.6014 4.33557 -1.26548
upperback 7.62384 5.5879 0.561725
thorax 0.779157 2.74644 0.63475
lowerneck 1.24551 -12.251 -8.11864
upperneck 12.6572 -16.4865 2.81028
head 4.52644 -8.32284 1.41838
rclavicle 4.77083e-014 -3.02153e-014
rhumerus 23.6438 3.92205 -68.4769
rradius 32.556
rwrist 23.0536
rhand -26.2282 20.4439
rfingers 7.12502
rthumb 0.325302 -9.53559
lclavicle 4.77083e-014 -3.02153e-014
lhumerus -14.4461 -39.4119 80.198
lradius 101.605
lwrist -14.6122
lhand -27.1877 25.7143
lfingers 7.12502
lthumb -0.601411 55.6932
rfemur -25.5594 0.0973071 14.1367
rtibia 44.5045
rfoot -18.9258 -10.7027
rtoes -12.0485
lfemur -24.3405 1.05264 -22.7765
ltibia 42.8211
lfoot -19.4291 6.20223
ltoes -12.8089
3272
root 0.328129 17.295 -2.49847 1.07902 -0.914903 2.85728
lowerback 12.5236 4.32291 -1.32309
upperback 7.60692 5.56638 0.532303
thorax 0.800973 2.73428 0.643968
lowerneck 1.28155 -12.1734 -8.10718
upperneck 12.6119 -16.3886 2.84343
head 4.5027 -8.27373 1.43697
rclavicle -5.1684e-015 -1.19271e-014
rhumerus 23.7034 4.0166 -68.548
rradius 32.5916
rwrist 23.085
rhand -26.3173 20.4484
rfingers 7.12502
rthumb 0.239264 -9.53122
lclavicle -5.1684e-015 -1.19271e-014
lhumerus -14.4978 -39.3889 80.1268
lradius 101.683
lwrist -14.5392
lhand -27.1521 25.6238
lfingers 7.12502
lthumb -0.566991 55.6028
rfemur -25.5972 0.140668 14.0525
rtibia 44.4732
rfoot -18.8891 -10.6782
rtoes -12.3616
lfemur -24.3425 1.12501 -22.8657
ltibia 42.7687
lfoot -19.3474 6.32877
ltoes -13.2799
3273
root 0.332441 17.297 -2.4949 1.07741 -1.00939 2.85599
lowerback 12.4807 4.30094 -1.33918
upperback 7.59102 5.53632 0.530668
thorax 0.806366 2.71865 0.657265
lowerneck 1.28182 -12.1044 -8.08454
upperneck 12.6339 -16.294 2.81199
head 4.49952 -8.22797 1.43041
rclavicle -2.38542e-014 1.66979e-014
rhumerus 23.7593 4.10775 -68.6208
rradius 32.6248
rwrist 23.2627
rhand -26.3633 20.4713
rfingers 7.12502
rthumb 0.194827 -9.50837
lclavicle -2.38542e-014 1.66979e-014
lhumerus -14.5517 -39.3525 80.0417
lradius 101.762
lwrist -14.5261
lhand -27.2145 25.4584
lfingers 7.12502
lthumb -0.627249 55.4372
rfemur -25.5717 0.202867 14.0382
rtibia 44.419
rfoot -18.8617 -10.6626
rtoes -12.3455
lfemur -24.293 1.16206 -22.8715
ltibia 42.7048
lfoot -19.3516 6.2301
ltoes -12.5451
3274
root 0.336218 17.3009 -2.49087 1.02358 -1.09332 2.85551
lowerback 12.4936 4.29186 -1.34728
upperback 7.58711 5.52302 0.53255
thorax 0.794728 2.71166 0.664055
lowerneck 1.18644 -12.0512 -8.00739
upperneck 12.7111 -16.2066 2.69542
head 4.51788 -8.18594 1.38312
rclavicle 3.1408e-014 2.38542e-015
rhumerus 23.8179 4.31856 -68.5385
rradius 32.679
rwrist 23.1599
rhand -26.4137 20.5083
rfingers 7.12502
rthumb 0.1462 -9.47142
lclavicle 3.1408e-014 2.38542e-015
lhumerus -14.5083 -39.3858 79.911
lradius 101.89
lwrist -14.5035
lhand -27.1595 25.3535
lfingers 7.12502
lthumb -0.57411 55.3325
rfemur -25.4844 0.251353 14.0269
rtibia 44.3552
rfoot -18.8501 -10.5993
rtoes -12.1672
lfemur -24.1581 1.21712 -22.8827
ltibia 42.6211
lfoot -19.3234 6.18027
ltoes -12.0918
3275
root 0.341011 17.3044 -2.48701 0.988454 -1.13456 2.88331
lowerback 12.4844 4.26526 -1.37289
upperback 7.57503 5.48542 0.527319
thorax 0.785896 2.69218 0.677386
lowerneck 1.13734 -11.9793 -7.8747
upperneck 12.702 -16.0926 2.53889
head 4.49298 -8.13089 1.32468
rclavicle -1.09332e-014 -1.59028e-015
rhumerus 23.8479 4.62968 -68.4059
rradius 32.7718
rwrist 22.9057
rhand -26.436 20.4452
rfingers 7.12502
rthumb 0.124636 -9.53447
lclavicle -1.09332e-014 -1.59028e-015
lhumerus -14.4044 -39.4801 79.6839
lradius 102.03
lwrist -14.3986
lhand -27.0746 25.3856
lfingers 7.12502
lthumb -0.492158 55.3647
rfemur -25.4067 0.219063 13.9849
rtibia 44.2838
rfoot -18.8402 -10.5332
rtoes -12.3318
lfemur -24.0427 1.24546 -22.9341
ltibia 42.5315
lfoot -19.3136 6.23999
ltoes -12.1691
3276
root 0.344774 17.3074 -2.48243 0.960562 -1.18422 2.91206
lowerback 12.4486 4.22806 -1.40885
upperback 7.56988 5.43339 0.521928
thorax 0.797972 2.66501 0.700341
lowerneck 1.14561 -11.8804 -7.79997
upperneck 12.6434 -15.9503 2.43953
head 4.45167 -8.06265 1.29769
rclavicle -4.96962e-015 2.06736e-014
rhumerus 23.8835 4.89035 -68.3619
rradius 32.8717
rwrist 22.8342
rhand -26.408 20.4574
rfingers 7.12502
rthumb 0.151687 -9.52228
lclavicle -4.96962e-015 2.06736e-014
lhumerus -14.2739 -39.5427 79.3902
lradius 102.187
lwrist -14.357
lhand -27.0042 25.4389
lfingers 7.12502
lthumb -0.42413 55.4182
rfemur -25.3221 0.236263 13.9352
rtibia 44.198
rfoot -18.8326 -10.4386
rtoes -12.2192
lfemur -23.9264 1.28143 -22.9754
ltibia 42.4271
lfoot -19.343 6.26673
ltoes -12.1603
